<svg width="388" height="129" viewBox="0 0 388 129" fill="none" xmlns="http://www.w3.org/2000/svg">
<path d="M347.906 25.6822L348.111 25.9756L348.316 25.6822C351.565 21.0309 356.86 18.2588 362.511 18.25C371.734 18.2501 379.861 26.8958 379.861 36.7729C379.861 46.4214 374.442 56.3965 364.114 65.6147C359.334 69.8761 354.09 73.5815 348.483 76.6599C348.249 76.7801 347.972 76.7801 347.739 76.6599C342.13 73.5815 336.884 69.8766 332.102 65.6146C321.779 56.3964 316.361 46.4214 316.361 36.7729C316.361 26.8958 324.488 18.2501 333.711 18.25C339.362 18.2588 344.656 21.0309 347.906 25.6822ZM347.989 74.9265L348.111 74.9938L348.232 74.9265C350.199 73.8348 357.687 69.4817 364.686 62.8201C371.678 56.1649 378.227 47.1628 378.227 36.7729C378.227 27.7948 370.906 19.8955 362.511 19.8955L362.51 19.8955C356.84 19.9056 351.614 22.9803 348.826 27.9442C348.666 28.185 348.398 28.3291 348.111 28.3291C347.824 28.3291 347.555 28.185 347.395 27.9442C344.608 22.9803 339.381 19.9056 333.711 19.8955H333.711C325.316 19.8955 317.994 27.7948 317.994 36.7729C317.994 47.1628 324.544 56.1649 331.536 62.8201C338.535 69.4817 346.022 73.8348 347.989 74.9265Z" fill="#FF1953" stroke="#363636" stroke-width="0.5"/>
<path d="M372.835 55.5828V56.2126V61.251M372.835 91.1777L374.095 111.845M372.835 91.1777V61.251M372.835 91.1777L371.127 98.8533C371.007 99.3961 370.846 99.9292 370.646 100.448V100.448C370.15 101.737 369.896 103.106 369.896 104.487V111.845M372.835 61.251V61.251C377.001 65.2233 383.889 63.4547 385.626 57.9666L387.111 53.2736M372.835 61.251V61.251C369.41 63.9916 366.849 67.6639 365.462 71.8259L364.228 75.5264" stroke="#806D65"/>
<circle cx="373.045" cy="48.0252" r="8.05757" fill="#523226"/>
<circle cx="373.045" cy="48.0252" r="8.05757" stroke="#806D65"/>
<circle cx="373.045" cy="48.0252" r="8.05757" stroke="#806D65"/>
<path d="M-63 137.828C-60.5 137.328 22.5398 82.5913 37 116.828C71 197.328 24.5 189 74.5 123C124.5 56.9998 189 48.5 177 88C168.375 116.391 142 101.5 136 83C125.851 51.707 105.704 -21.4921 139.5 7.00001C251 101 281 11.5 278 7.00001C258.667 -22 228 107 317.5 41" stroke="url(#paint0_linear)"/>
<path d="M321.192 55.5828L321.612 60.4112M316.993 88.3322L316.154 111.845M316.993 88.3322L317.833 79.725L321.612 60.4112M316.993 88.3322L317.918 90.7286C320.355 97.0427 321.485 103.786 321.239 110.549L321.192 111.845M321.612 60.4112L318.743 61.3989C310.582 64.2085 310.064 75.5545 317.936 79.0952V79.0952M321.612 60.4112L328.271 59.5114C328.998 59.413 329.739 59.4985 330.425 59.7598V59.7598C332.381 60.505 333.54 62.5262 333.196 64.591L332.905 66.3377C332.794 67.0013 332.787 67.6779 332.882 68.3438L333.158 70.278" stroke="#806D65"/>
<circle cx="321.402" cy="48.0252" r="8.05757" fill="#523226" stroke="#806D65"/>
<defs>
<linearGradient id="paint0_linear" x1="19.385" y1="174.854" x2="176.511" y2="174.854" gradientUnits="userSpaceOnUse">
<stop stop-color="#FF6647"/>
<stop offset="1" stop-color="#FF1953"/>
</linearGradient>
</defs>
</svg>
