<svg width="246" height="254" viewBox="0 0 246 254" fill="none" xmlns="http://www.w3.org/2000/svg">
<path d="M139.867 20.7038L140.564 21.7013L141.261 20.7038C149.941 8.27849 164.083 0.873659 179.178 0.85C203.799 0.850417 225.521 23.9434 225.521 50.3424C225.521 76.1465 211.03 102.851 183.357 127.552C170.549 138.97 156.499 148.898 141.478 157.147C140.903 157.441 140.225 157.441 139.65 157.147C124.623 148.898 110.569 138.971 97.7574 127.552C70.0983 102.851 55.6078 76.1464 55.6078 50.3424C55.6078 23.9434 77.3299 0.850417 101.951 0.85C117.046 0.873658 131.188 8.27849 139.867 20.7038ZM140.152 152.814L140.564 153.043L140.977 152.814C146.257 149.883 166.349 138.201 185.133 120.322C203.893 102.465 221.5 78.2795 221.5 50.3424C221.5 26.1795 201.799 4.90341 179.177 4.90341L179.176 4.90342C163.909 4.93064 149.837 13.2088 142.329 26.5732C141.934 27.1657 141.272 27.5196 140.564 27.5196C139.857 27.5196 139.195 27.1657 138.799 26.5732C131.292 13.2088 117.22 4.93064 101.953 4.90341H101.951C79.3295 4.90341 59.6282 26.1795 59.6282 50.3424C59.6282 78.2795 77.2356 102.465 95.9958 120.322C114.779 138.201 134.871 149.883 140.152 152.814Z" fill="#FF1953" stroke="#FCFBF9" stroke-width="1.7"/>
<path d="M206.612 102.314V104.008V117.556M206.612 198.03L209.999 253.604M206.612 198.03V117.556M206.612 198.03L202.015 218.688C201.693 220.136 201.257 221.575 200.725 222.959V222.959C199.403 226.396 198.709 230.09 198.709 233.772V253.604M206.612 117.556V117.556C217.815 128.238 236.335 123.482 241.005 108.724L244.999 96.1045M206.612 117.556L199.417 123.312C194.901 126.924 191.526 131.765 189.697 137.251L183.467 155.943" stroke="#FF6647"/>
<circle cx="207.178" cy="81.9915" r="20.8226" fill="#FCFBF9"/>
<circle cx="207.178" cy="81.9915" r="20.8226" stroke="#FF6647"/>
<circle cx="207.178" cy="81.9915" r="20.8226" stroke="#FF6647"/>
<path d="M67.7419 102.314L68.871 115.298M56.4516 190.379L54.1935 253.605M56.4516 190.379L58.7097 167.234L68.871 115.298M56.4516 190.379L65.1774 212.986C67.6144 219.3 68.7442 226.044 68.4982 232.807L67.7419 253.605M68.871 115.298L61.1561 117.954C39.2102 125.509 37.819 156.019 58.9862 165.54V165.54M68.871 115.298L86.7771 112.878C88.7333 112.614 90.7244 112.844 92.5691 113.546V113.546C97.8294 115.55 100.947 120.985 100.022 126.538L99.2391 131.235C98.9417 133.019 98.9205 134.838 99.1763 136.629L99.9194 141.83" stroke="#FF6647"/>
<circle cx="68.307" cy="81.9915" r="20.8226" fill="#FCFBF9" stroke="#FF6647"/>
</svg>
