<svg width="375" height="200" viewBox="0 0 375 200" fill="none" xmlns="http://www.w3.org/2000/svg">
<g opacity="0.4">
<circle cx="319" cy="24" r="23.5" fill="white" stroke="#B4ADA3"/>
<path d="M318 59.5V159.5M318 59.5V47.5M318 59.5V59.5C300.781 65.3702 284.636 48.2809 291.475 31.4229L295.5 21.5M318 59.5L331.305 71.8771C336.178 76.41 337.532 83.5876 334.645 89.584V89.584C333.565 91.8269 331.95 93.77 329.943 95.2421L318 104M318 159.5L321.5 199M318 159.5L314.186 165.084C307.597 174.733 304.53 186.356 305.5 198V198" stroke="#B4ADA3"/>
<path d="M375 195.5C332 210 163.5 177 132 181.5C90.9798 187.36 47 203 22.5 185.5C-2 168 -24 181.5 -31 185.5" stroke="#B4ADA3" stroke-opacity="0.5"/>
</g>
</svg>
