<svg width="7" height="4" viewBox="0 0 7 4" fill="none" xmlns="http://www.w3.org/2000/svg">
<path d="M3.50148 2.65585L0.882683 0.108718C0.810748 0.0385828 0.714569 2.07184e-07 0.612016 2.11666e-07C0.509406 2.16152e-07 0.413284 0.0385828 0.341236 0.108718L0.111886 0.331912C0.0397234 0.401937 -1.53185e-07 0.495544 -1.48824e-07 0.595295C-1.44464e-07 0.695045 0.0397234 0.788541 0.111886 0.858621L3.22979 3.89139C3.30207 3.96175 3.39864 4.00028 3.50131 4C3.60443 4.00028 3.70089 3.9618 3.77323 3.89139L6.88811 0.861444C6.96028 0.791364 7 0.697869 7 0.598062C7 0.498311 6.96028 0.404816 6.88811 0.33468L6.65876 0.111541C6.50949 -0.0336564 6.26648 -0.0336564 6.11726 0.111541L3.50148 2.65585Z" fill="#FF6647"/>
</svg>
