<svg width="17" height="11" viewBox="0 0 17 11" xmlns="http://www.w3.org/2000/svg">
<path d="M16.8501 0.785889L11.6945 5.49984L16.8501 10.2138C16.9433 10.0345 16.9999 9.83635 16.9999 9.62473V1.37495C16.9999 1.1633 16.9433 0.965153 16.8501 0.785889Z" />
<path d="M15.5054 0H1.49387C1.26388 0 1.04856 0.0520348 0.85376 0.137802L7.44326 6.17123C8.0259 6.7074 8.97337 6.7074 9.55601 6.17123L16.1455 0.137802C15.9507 0.0520348 15.7354 0 15.5054 0Z" />
<path d="M0.149744 0.785889C0.0565443 0.965153 0 1.1633 0 1.37495V9.62473C0 9.83638 0.0565443 10.0346 0.149744 10.2138L5.30544 5.49984L0.149744 0.785889Z" />
<path d="M10.9898 6.14819L10.2603 6.81957C9.28946 7.71296 7.70978 7.71296 6.73897 6.81957L6.00944 6.14819L0.85376 10.8621C1.04856 10.9479 1.26388 10.9999 1.49387 10.9999H15.5054C15.7354 10.9999 15.9507 10.9479 16.1455 10.8621L10.9898 6.14819Z" />
</svg>
