<svg width="12" height="12" viewBox="0 0 12 12" xmlns="http://www.w3.org/2000/svg">
<path d="M11.9828 4.55671C11.9414 4.42327 11.8314 4.32603 11.699 4.30588L7.97896 3.73919L6.31525 0.205426C6.25605 0.0796298 6.13382 0 6.00002 0C5.86619 0 5.74399 0.0796298 5.68476 0.205426L4.02099 3.73919L0.301003 4.30588C0.168606 4.32603 0.058567 4.42328 0.0172234 4.55669C-0.0241436 4.69012 0.0103562 4.83658 0.106192 4.93449L2.79793 7.68515L2.16259 11.5692C2.13995 11.7074 2.19418 11.8472 2.30244 11.9296C2.36368 11.9763 2.43622 12 2.50911 12C2.56508 12 2.62124 11.986 2.67266 11.9577L5.99999 10.1238L9.32719 11.9576C9.44567 12.0229 9.58918 12.0121 9.69743 11.9296C9.80569 11.8472 9.85995 11.7074 9.83733 11.5691L9.20178 7.68515L11.8938 4.93447C11.9896 4.83658 12.0242 4.69012 11.9828 4.55671Z" />
</svg>
