<svg width="12" height="12" viewBox="0 0 12 12" xmlns="http://www.w3.org/2000/svg">
<path d="M11.8938 10.0222L6.68053 0.991221C6.37835 0.467933 5.62167 0.467933 5.31949 0.991221L0.106263 10.0222C-0.195918 10.5455 0.182422 11.2015 0.786783 11.2015H11.2132C11.8176 11.2015 12.1959 10.5455 11.8938 10.0222ZM6.00738 3.77226C6.3415 3.77226 6.61174 4.04988 6.60191 4.38399L6.50364 7.81362C6.49627 8.08386 6.27516 8.2976 6.00492 8.2976C5.73468 8.2976 5.51357 8.0814 5.5062 7.81362L5.41039 4.38399C5.40302 4.04988 5.6708 3.77226 6.00738 3.77226ZM6.00001 9.97556C5.65852 9.97556 5.38091 9.69795 5.38091 9.35646C5.38091 9.01497 5.65852 8.73736 6.00001 8.73736C6.3415 8.73736 6.61911 9.01497 6.61911 9.35646C6.61911 9.69795 6.3415 9.97556 6.00001 9.97556Z" />
</svg>
