<svg width="13" height="13" viewBox="0 0 13 13"  xmlns="http://www.w3.org/2000/svg">
<path d="M12.3759 5.72988C12.3338 5.46578 12.0855 5.28587 11.8214 5.328C11.5573 5.37014 11.3774 5.6184 11.4196 5.88249C11.42 5.88539 11.4205 5.88825 11.421 5.89112C11.9141 8.79396 9.96066 11.5469 7.05782 12.04C4.15497 12.5331 1.40202 10.5797 0.908899 7.67684C0.41578 4.774 2.36927 2.02105 5.27209 1.52793C7.05728 1.22468 8.87435 1.84826 10.0971 3.18379L7.95201 3.8985C7.69825 3.98294 7.56101 4.25707 7.64542 4.51084C7.64545 4.5109 7.64547 4.51098 7.6455 4.51104C7.72994 4.7648 8.00408 4.90204 8.25784 4.81764C8.25793 4.81761 8.25798 4.81758 8.25804 4.81758L11.1634 3.84913C11.3612 3.78325 11.4947 3.59812 11.4946 3.38961V0.484238C11.4946 0.216796 11.2778 0 11.0104 0C10.743 0 10.5262 0.216796 10.5262 0.484238V2.25311C8.03242 -0.11874 4.08807 -0.0199175 1.71622 2.47382C-0.655633 4.96756 -0.556839 8.91191 1.93693 11.2838C4.4307 13.6557 8.37502 13.5568 10.7469 11.0631C12.0994 9.64103 12.703 7.66495 12.3759 5.72988Z" />
</svg>
