<svg width="15" height="15" viewBox="0 0 15 15" xmlns="http://www.w3.org/2000/svg">
<g clip-path="url(#clip0)">
<path d="M7.5 10.625C7.24125 10.625 7.03125 10.415 7.03125 10.1563V0.46875C7.03125 0.209999 7.24125 0 7.5 0C7.75875 0 7.96875 0.209999 7.96875 0.46875V10.1563C7.96875 10.415 7.75875 10.625 7.5 10.625Z" />
<path d="M7.49985 10.6255C7.3798 10.6255 7.25986 10.5799 7.16854 10.488L4.66858 7.98801C4.48547 7.80491 4.48547 7.50805 4.66858 7.32483C4.85168 7.14172 5.14854 7.14172 5.33176 7.32483L7.50042 9.4936L9.66919 7.32483C9.85229 7.14172 10.1493 7.14172 10.3324 7.32483C10.5155 7.50805 10.5155 7.80491 10.3324 7.98801L7.8323 10.488C7.73983 10.5799 7.6199 10.6255 7.49985 10.6255Z" />
<path d="M13.2812 15H1.71879C0.770645 15 0 14.2294 0 13.2812V10.4687C0 10.21 0.209999 10 0.46875 10C0.727501 10 0.9375 10.21 0.9375 10.4687V13.2812C0.9375 13.7119 1.28815 14.0625 1.71879 14.0625H13.2812C13.7119 14.0625 14.0625 13.7119 14.0625 13.2812V10.4687C14.0625 10.21 14.2725 10 14.5312 10C14.79 10 15 10.21 15 10.4687V13.2812C15 14.2294 14.2294 15 13.2812 15Z" />
</g>
<defs>
<clipPath id="clip0">
<rect width="15" height="15" fill="white"/>
</clipPath>
</defs>
</svg>
