<svg width="9" height="12" viewBox="0 0 9 12" xmlns="http://www.w3.org/2000/svg">
<path d="M7.875 4.5H7.5V3C7.5 1.3455 6.1545 0 4.5 0C2.8455 0 1.5 1.3455 1.5 3V4.5H1.125C0.505 4.5 0 5.0045 0 5.625V10.875C0 11.4955 0.505 12 1.125 12H7.875C8.495 12 9 11.4955 9 10.875V5.625C9 5.0045 8.495 4.5 7.875 4.5ZM2.5 3C2.5 1.897 3.397 1 4.5 1C5.603 1 6.5 1.897 6.5 3V4.5H2.5V3ZM5 8.361V9.5C5 9.776 4.7765 10 4.5 10C4.2235 10 4 9.776 4 9.5V8.361C3.7025 8.1875 3.5 7.8685 3.5 7.5C3.5 6.9485 3.9485 6.5 4.5 6.5C5.0515 6.5 5.5 6.9485 5.5 7.5C5.5 7.8685 5.2975 8.1875 5 8.361Z" />
</svg>
