<svg width="44" height="44" viewBox="0 0 44 44" fill="none" xmlns="http://www.w3.org/2000/svg">
<g clip-path="url(#clip0)">
<path d="M35.9033 13.244C35.9179 12.9955 35.926 12.7433 35.926 12.4824C35.9342 6.99258 32.3486 2.14409 27.097 0.544211C20.5141 -1.46137 13.5516 2.24928 11.5461 8.83223C11.3606 8.8227 11.1818 8.81757 11.0051 8.81757C4.93304 8.81757 0.0106201 13.74 0.0106201 19.8121C0.0106201 25.8842 4.93304 30.8066 11.0051 30.8066H17.6099C18.0147 30.8066 18.3429 30.4784 18.3429 30.0736C18.3429 29.6688 18.0147 29.3406 17.6099 29.3406H11.0051C5.7426 29.3406 1.47655 25.0746 1.47655 19.8121C1.47655 14.5496 5.7426 10.2835 11.0051 10.2835C11.343 10.2844 11.6806 10.3028 12.0166 10.3385C12.3767 10.3686 12.7069 10.1369 12.8009 9.78802C14.0287 4.88878 18.4365 1.4563 23.4873 1.46628C29.5594 1.47819 34.4721 6.41033 34.4601 12.4824C34.462 12.9396 34.4323 13.3963 34.3714 13.8494C34.3669 13.8822 34.3647 13.9154 34.3647 13.9484C34.3648 14.3532 34.693 14.6813 35.0977 14.6813H35.193C39.2411 14.6813 42.5227 17.9629 42.5227 22.011C42.5227 26.0591 39.2411 29.3406 35.193 29.3406H26.4465C26.0418 29.3406 25.7136 29.6688 25.7136 30.0736C25.7136 30.4784 26.0418 30.8066 26.4465 30.8066H35.193C39.7766 30.8075 43.5926 27.2882 43.9618 22.7195C44.3531 17.8777 40.7452 13.6353 35.9033 13.244Z" fill="#FF6647"/>
<path d="M30.8097 22.4553L21.9987 13.645L13.1877 22.4553L14.2248 23.4924L21.2657 16.4508V44.0001H22.7316V16.4508L29.7725 23.4924L30.8097 22.4553Z" fill="#FF6647"/>
</g>
<defs>
<clipPath id="clip0">
<rect width="44" height="44" fill="white"/>
</clipPath>
</defs>
</svg>
