<svg width="29" height="27" viewBox="0 0 29 27" xmlns="http://www.w3.org/2000/svg">
<path d="M27.6009 12.334H1.16625C0.52212 12.334 0 12.8565 0 13.5003C0 14.1441 0.522064 14.6665 1.16625 14.6665H27.6009C28.245 14.6665 28.7671 14.1445 28.7671 13.5003C28.7671 12.8561 28.2451 12.334 27.6009 12.334Z" />
<path d="M28.6584 12.6754L17.2297 1.24621C16.774 0.790978 16.0362 0.790978 15.5806 1.24621C15.125 1.70183 15.125 2.44043 15.5806 2.89566L26.1848 13.5002L15.5806 24.1049C15.125 24.5601 15.125 25.2987 15.5806 25.7539C15.8084 25.9817 16.1066 26.0956 16.4051 26.0956C16.7037 26.0956 17.0019 25.9817 17.2297 25.7539L28.6584 14.3248C29.114 13.8692 29.114 13.1305 28.6584 12.6754Z" />
</svg>
