<svg width="20" height="21" viewBox="0 0 20 21" fill="none" xmlns="http://www.w3.org/2000/svg">
<g clip-path="url(#clip0)">
<path d="M17.4997 15.586H16.6431C16.5922 15.3785 16.4422 15.2052 16.2322 15.1385C14.6306 14.6277 12.8697 14.6277 11.2681 15.1385C11.0581 15.2052 10.9081 15.3785 10.8572 15.586H9.14305C9.09222 15.3785 8.94222 15.2052 8.73222 15.1385C7.13055 14.6277 5.36972 14.6277 3.76805 15.1385C3.55722 15.2052 3.40805 15.3785 3.35722 15.586H2.49972C2.03888 15.586 1.66638 15.9593 1.66638 16.4193C1.66638 16.8793 2.03888 17.2527 2.49972 17.2527H3.33305V17.4202C3.33305 18.4477 4.09138 19.3135 5.13638 19.481L6.66388 19.7243C6.78138 19.7435 6.89888 19.7527 7.01638 19.7527C7.53555 19.7527 8.03888 19.5702 8.43555 19.2318C8.90055 18.8352 9.16638 18.2643 9.16638 17.6643V17.2527H10.833V17.6643C10.833 18.2643 11.0989 18.8352 11.5639 19.2318C11.9614 19.5702 12.4639 19.7527 12.9831 19.7527C13.1006 19.7527 13.2181 19.7435 13.3356 19.7243L14.8631 19.481C15.9081 19.3143 16.6664 18.4477 16.6664 17.4202V17.2527H17.4997C17.9606 17.2527 18.3331 16.8793 18.3331 16.4193C18.3331 15.9593 17.9606 15.586 17.4997 15.586Z" fill="white" fill-opacity="0.7"/>
<path d="M14.1667 6.72494V5.53161C14.1667 4.73744 13.7667 4.01161 13.0958 3.58827C12.4242 3.16494 11.5983 3.11744 10.8833 3.46161L10.625 3.53577C10.625 2.82827 10.05 2.25244 9.34333 2.25244H8.125C6.86083 2.25244 5.83333 3.28244 5.83333 4.54827V6.72494C2.39333 7.25244 0 8.40744 0 9.75244C0 11.5933 4.4775 13.0858 10 13.0858C15.5225 13.0858 20 11.5933 20 9.75244C20 8.40744 17.6067 7.25244 14.1667 6.72494Z" fill="white" fill-opacity="0.7"/>
</g>
<defs>
<clipPath id="clip0">
<rect width="20" height="20" fill="white" transform="translate(0 0.585938)"/>
</clipPath>
</defs>
</svg>
