<svg width="21" height="16" viewBox="0 0 21 16" xmlns="http://www.w3.org/2000/svg">
<path d="M18.7466 0H2.25337C1.00944 0.00135135 0.00140836 0.968581 0 2.16216V13.8378C0.00140836 15.0314 1.00944 15.9986 2.25337 16H18.7466C19.9906 15.9986 20.9986 15.0314 21 13.8378V2.16216C20.9986 0.968581 19.9906 0.00135135 18.7466 0ZM2.25337 0.864865H18.7466C19.4929 0.865709 20.0978 1.44595 20.0987 2.16216V10.6877L17.4022 7.02179C16.9839 6.45338 16.3061 6.11267 15.581 6.10659C14.8557 6.10051 14.1718 6.42956 13.7433 6.99105L10.6741 11.0118C10.2468 11.5738 9.43299 11.7113 8.83145 11.3231L6.53689 9.84983C5.78324 9.3647 4.79968 9.36149 4.04269 9.84189L0.901524 11.8492V2.16216C0.902404 1.44611 1.50712 0.865709 2.25337 0.864865ZM18.7466 15.1351H2.25337C1.50694 15.1343 0.902228 14.5539 0.901348 13.8378V12.8885L4.54019 10.5633C4.99421 10.2757 5.5836 10.2779 6.03533 10.5686L8.3299 12.0421C9.33265 12.689 10.6891 12.4596 11.401 11.5228L14.4702 7.50203C14.7272 7.16503 15.1375 6.96757 15.5727 6.97128C16.0079 6.975 16.4146 7.17939 16.6654 7.52044L20.0983 12.1875V13.8378C20.0974 14.5539 19.4927 15.1341 18.7466 15.1351Z" />
</svg>
