<svg width="12" height="11" viewBox="0 0 12 11" xmlns="http://www.w3.org/2000/svg">
<path d="M11.8938 9.6144L6.68053 0.583384C6.37835 0.060096 5.62167 0.060096 5.31949 0.583384L0.106263 9.6144C-0.195918 10.1377 0.182422 10.7936 0.786783 10.7936H11.2132C11.8176 10.7936 12.1959 10.1377 11.8938 9.6144ZM6.00738 3.36443C6.3415 3.36443 6.61174 3.64204 6.60191 3.97616L6.50364 7.40578C6.49627 7.67602 6.27516 7.88976 6.00492 7.88976C5.73468 7.88976 5.51357 7.67357 5.5062 7.40578L5.41039 3.97616C5.40302 3.64204 5.6708 3.36443 6.00738 3.36443ZM6.00001 9.56772C5.65852 9.56772 5.38091 9.29011 5.38091 8.94862C5.38091 8.60713 5.65852 8.32952 6.00001 8.32952C6.3415 8.32952 6.61911 8.60713 6.61911 8.94862C6.61911 9.29011 6.3415 9.56772 6.00001 9.56772Z" />
</svg>
