<svg width="12" height="12" viewBox="0 0 12 12" fill="none" xmlns="http://www.w3.org/2000/svg">
<path d="M9.96962 2.09302C9.09055 0.753488 7.63938 0 6.00683 0C4.38822 0 2.93706 0.753488 2.03008 2.09302C1.12311 3.40465 0.913803 5.07907 1.47194 6.54419C1.62543 6.93488 1.86264 7.33953 2.16962 7.70233L5.69985 11.8605C5.78357 11.9442 5.86729 12 5.99287 12C6.11845 12 6.20217 11.9442 6.2859 11.8605L9.83008 7.70233C10.1371 7.33953 10.3882 6.94884 10.5278 6.54419C11.0859 5.07907 10.8766 3.40465 9.96962 2.09302ZM6.00683 7.03256C4.80683 7.03256 3.81613 6.04186 3.81613 4.84186C3.81613 3.64186 4.80683 2.65116 6.00683 2.65116C7.20683 2.65116 8.19752 3.64186 8.19752 4.84186C8.19752 6.04186 7.22078 7.03256 6.00683 7.03256Z" fill="#CBC6BF"/>
</svg>
