<svg width="10" height="13" viewBox="0 0 10 13" xmlns="http://www.w3.org/2000/svg">
<path d="M9.96453 10.1803L9.10601 8.74098C8.7095 8.07665 8.49998 7.31574 8.49998 6.54128V5.28049C8.49998 3.6888 7.44394 2.34253 5.99988 1.90852V1.00582C5.99988 0.451105 5.55136 0 4.99983 0C4.4483 0 3.99979 0.451105 3.99979 1.00582V1.90852C2.55574 2.34253 1.4997 3.6888 1.4997 5.28049V6.54128C1.4997 7.31574 1.29019 8.07613 0.894172 8.74048L0.0356459 10.1798C-0.010856 10.2577 -0.0118638 10.3543 0.0326458 10.4333C0.0771553 10.5122 0.159659 10.561 0.249662 10.561H9.75003C9.84003 10.561 9.92303 10.5122 9.96753 10.4338C10.012 10.3553 10.0105 10.2577 9.96453 10.1803Z" />
<path d="M3.42529 11.0635C3.70731 11.6559 4.30433 12.0693 4.99985 12.0693C5.69536 12.0693 6.29242 11.6559 6.57443 11.0635H3.42529Z" />
</svg>
