<svg width="23" height="17" viewBox="0 0 23 17" xmlns="http://www.w3.org/2000/svg">
<path d="M5.10085 0.382324C2.28834 0.382324 0.000488281 2.67018 0.000488281 5.48272C0.000488281 8.19593 2.12971 10.4213 4.80501 10.575C4.85133 11.0751 4.81658 12.4365 3.51208 14.3302C3.41347 14.4731 3.43137 14.6657 3.55385 14.7882C4.08766 15.322 4.41757 15.6582 4.64846 15.8933C4.95066 16.2008 5.08859 16.3412 5.29038 16.5244C5.35881 16.5865 5.44513 16.6177 5.53185 16.6177C5.61605 16.6177 5.69992 16.5882 5.76767 16.5296C8.04078 14.5517 10.5659 10.4648 10.2006 5.45674C9.98648 2.51647 7.8418 0.382324 5.10085 0.382324ZM5.53533 15.7674C5.43744 15.6709 5.32581 15.5572 5.16122 15.3897C4.96119 15.1858 4.68674 14.9065 4.27051 14.4888C5.85366 12.0494 5.55463 10.3118 5.42374 10.0626C5.36161 9.94436 5.23421 9.86469 5.10085 9.86469C2.68491 9.86469 0.719238 7.89901 0.719238 5.48272C0.719238 3.06675 2.68491 1.10107 5.10085 1.10107C7.45436 1.10107 9.29755 2.9548 9.48389 5.50867C9.89451 11.1415 6.54679 14.7987 5.53533 15.7674Z" />
<path d="M22.9645 5.45674V5.45638C22.7497 2.51647 20.6047 0.382324 17.8644 0.382324C15.0519 0.382324 12.7637 2.67018 12.7637 5.48272C12.7637 8.19593 14.8933 10.4213 17.5689 10.575C17.6152 11.0748 17.5801 12.4354 16.2753 14.3302C16.1767 14.4731 16.1946 14.6657 16.3171 14.7882C16.8488 15.3199 17.1779 15.6554 17.4089 15.8902C17.7124 16.1997 17.8511 16.3408 18.0539 16.5247C18.1223 16.5865 18.209 16.6177 18.2954 16.6177C18.3796 16.6177 18.4635 16.5882 18.5312 16.5293C20.8043 14.5513 23.3294 10.4645 22.9645 5.45674ZM18.2989 15.7674C18.2003 15.6701 18.0876 15.5557 17.9216 15.3866C17.7216 15.183 17.4482 14.9044 17.0337 14.4888C18.6168 12.049 18.3182 10.3118 18.1876 10.0626C18.1255 9.94472 17.9978 9.86469 17.8644 9.86469C15.4481 9.86469 13.4824 7.89901 13.4824 5.48272C13.4824 3.06675 15.4481 1.10107 17.8644 1.10107C20.2175 1.10107 22.0611 2.9548 22.2478 5.50903V5.50867C22.658 11.1408 19.3103 14.7987 18.2989 15.7674Z" />
</svg>
