<svg width="15" height="15" viewBox="0 0 15 15" xmlns="http://www.w3.org/2000/svg">
<path d="M7.5 0C3.35786 0 0 3.35786 0 7.5C0 11.6421 3.35786 15 7.5 15C11.6421 15 15 11.6421 15 7.5C15 3.35786 11.6421 0 7.5 0ZM7.5 14.0625C3.87563 14.0625 0.9375 11.1244 0.9375 7.5C0.9375 3.87563 3.87563 0.9375 7.5 0.9375C11.1244 0.9375 14.0625 3.87563 14.0625 7.5C14.0625 11.1244 11.1244 14.0625 7.5 14.0625Z" />
<path d="M5.15625 6.09375C5.67402 6.09375 6.09375 5.67402 6.09375 5.15625C6.09375 4.63848 5.67402 4.21875 5.15625 4.21875C4.63848 4.21875 4.21875 4.63848 4.21875 5.15625C4.21875 5.67402 4.63848 6.09375 5.15625 6.09375Z" />
<path d="M9.84375 6.09375C10.3615 6.09375 10.7812 5.67402 10.7812 5.15625C10.7812 4.63848 10.3615 4.21875 9.84375 4.21875C9.32598 4.21875 8.90625 4.63848 8.90625 5.15625C8.90625 5.67402 9.32598 6.09375 9.84375 6.09375Z" />
</svg>
