<svg width="11" height="11" viewBox="0 0 11 11" xmlns="http://www.w3.org/2000/svg">
<path d="M5.43165 5.2098C6.14739 5.2098 6.76715 4.9531 7.27355 4.44662C7.77994 3.94023 8.03664 3.32063 8.03664 2.60482C8.03664 1.88925 7.77994 1.26957 7.27346 0.763011C6.76699 0.256703 6.1473 0 5.43165 0C4.71584 0 4.09623 0.256703 3.58984 0.763094C3.08345 1.26949 2.82666 1.88917 2.82666 2.60482C2.82666 3.32063 3.08345 3.94031 3.58992 4.4467C4.0964 4.95301 4.71608 5.2098 5.43165 5.2098Z" />
<path d="M9.98974 8.31684C9.97513 8.1061 9.94559 7.87621 9.90211 7.63345C9.85821 7.38888 9.80169 7.15768 9.73402 6.94636C9.66413 6.72794 9.56908 6.51225 9.45158 6.30555C9.32962 6.09101 9.18637 5.9042 9.02563 5.75047C8.85755 5.58965 8.65176 5.46035 8.41379 5.36604C8.17664 5.27222 7.91383 5.22469 7.6327 5.22469C7.5223 5.22469 7.41552 5.26999 7.20932 5.40424C7.08241 5.48701 6.93397 5.58272 6.76828 5.68859C6.6266 5.77886 6.43467 5.86344 6.19761 5.94001C5.96632 6.01485 5.73148 6.05281 5.4997 6.05281C5.26791 6.05281 5.03316 6.01485 4.80162 5.94001C4.5648 5.86352 4.37287 5.77894 4.23136 5.68867C4.06724 5.58379 3.91871 5.48808 3.78991 5.40416C3.58395 5.26991 3.47709 5.22461 3.36669 5.22461C3.08548 5.22461 2.82275 5.27222 2.58569 5.36612C2.34788 5.46027 2.142 5.58957 1.97376 5.75056C1.8131 5.90436 1.66977 6.09109 1.54798 6.30555C1.43056 6.51225 1.3355 6.72786 1.26553 6.94644C1.19795 7.15776 1.14143 7.38888 1.09753 7.63345C1.05405 7.87588 1.02451 8.10585 1.0099 8.31709C0.995543 8.52403 0.988281 8.73882 0.988281 8.95575C0.988281 9.52031 1.16775 9.97736 1.52166 10.3144C1.87119 10.647 2.33368 10.8158 2.89611 10.8158H8.10378C8.6662 10.8158 9.12853 10.6471 9.47815 10.3144C9.83213 9.97761 10.0116 9.52048 10.0116 8.95567C10.0115 8.73775 10.0042 8.52279 9.98974 8.31684Z" />
</svg>
