<svg width="18" height="15" viewBox="0 0 18 15" xmlns="http://www.w3.org/2000/svg">
<path fill-rule="evenodd" clip-rule="evenodd" d="M10.0007 7.34399C10.0007 14.0546 10.0011 2.44197 10.0011 3.60086C10.0011 4.74103 10.0011 11.9761 10.0001 13.0309V14.1867C9.8506 14.1867 10.1123 14.2802 10.0001 14.1867C9.88798 14.2802 10.1497 14.1867 10.0001 14.1867L16.673 8.07454C17.5328 7.27082 18.0001 6.18671 18.0001 5.0465C18.0001 3.88761 17.5141 2.82218 16.673 1.99977C14.9347 0.354894 12.1122 0.354894 10.3739 1.99977L10.0001 2.35493C10.0011 3.73333 10.0017 3.60124 10.0007 7.34399ZM10.0001 13.0309C9.99956 11.6872 10.0005 6.47607 10.0011 3.60086C10.0002 4.3436 10.0005 5.61019 10.0005 6.47607C10.0005 7.33656 10.0009 6.68774 10.0007 7.34399L10.0001 13.0309L15.9901 7.34399C16.6497 6.72747 17.0001 5.90703 17.0001 5.0465C17.0001 4.18328 16.6426 3.37132 15.9798 2.72056C14.6267 1.44629 12.4126 1.44797 11.0618 2.72558L10.0011 3.60086L10.0001 13.0309Z" />
<path fill-rule="evenodd" clip-rule="evenodd" d="M7.9522 8.35206C7.9522 14.8323 7.9518 3.61833 7.9518 4.73743C7.9518 5.83846 7.95182 12.8251 7.95281 13.8438L7.95281 14.9599C8.10144 14.9599 7.84131 15.0501 7.95281 14.9599C8.06427 15.0502 7.80414 14.9599 7.95281 14.9599L1.31928 9.05754C0.464526 8.28141 0 7.23451 0 6.13344C0 5.01434 0.483092 3.98548 1.31928 3.19131C3.04735 1.6029 5.85314 1.6029 7.58118 3.19131L7.95281 3.53427C7.95182 4.86536 7.95121 4.7378 7.9522 8.35206ZM7.95281 13.8438C7.95335 12.5461 7.95246 7.51395 7.9518 4.73743C7.95268 5.45468 7.95246 6.67779 7.95246 7.51395C7.95246 8.3449 7.95203 7.71834 7.9522 8.35206L7.95281 13.8438L1.99815 8.35206C1.34249 7.75671 0.994102 6.96444 0.994102 6.13344C0.994102 5.29986 1.3495 4.51577 2.00841 3.88735C3.35353 2.65683 5.55451 2.65845 6.89734 3.8922L7.9518 4.73743L7.95281 13.8438Z" />
</svg>
