<svg width="10" height="7" viewBox="0 0 10 7" xmlns="http://www.w3.org/2000/svg">
<path d="M5.00008 2.04178H6.2501V0.291962C6.2501 0.171224 6.32947 0.0633184 6.4501 0.0201561C6.56948 -0.0241727 6.70698 0.00615746 6.79386 0.0959816L9.9189 3.30399C10.027 3.41539 10.027 3.58513 9.9189 3.69653L6.79386 6.90454C6.73323 6.96578 6.64885 6.99961 6.5626 6.99961C6.52448 6.99961 6.48635 6.9932 6.4501 6.98036C6.32947 6.93662 6.2501 6.82871 6.2501 6.70797V4.95815H5.59384C3.68256 4.95815 1.88565 5.65283 0.533758 6.91445C0.443757 6.99844 0.308755 7.02294 0.193128 6.97745C0.076251 6.93254 0 6.8258 0 6.70797C0 4.13515 2.24316 2.04178 5.00008 2.04178Z" />
</svg>
