<svg width="14" height="14" viewBox="0 0 14 14" xmlns="http://www.w3.org/2000/svg">
<path d="M6.68062 0.51118C4.95115 0.506508 3.28799 1.17633 2.04451 2.37833V0.51115C2.04451 0.228845 1.81567 0 1.53336 0C1.25106 0 1.02224 0.228845 1.02224 0.51115V3.57799C1.02218 3.79809 1.16303 3.99351 1.37187 4.06306L4.43871 5.08533C4.70688 5.17455 4.99662 5.02944 5.08581 4.76127C5.17503 4.4931 5.02992 4.20337 4.76175 4.11418L2.49741 3.36077C4.58912 1.08295 8.13135 0.932062 10.4092 3.02377C12.687 5.11549 12.8379 8.65772 10.7462 10.9355C8.65445 13.2134 5.11222 13.3642 2.8344 11.2725C1.43791 9.99015 0.785189 8.0882 1.09996 6.21853C1.14947 5.9406 0.964318 5.67518 0.686415 5.62565C0.408513 5.57611 0.143069 5.76129 0.0935327 6.03919C0.0929936 6.04222 0.0924844 6.04527 0.0920052 6.0483C0.0308182 6.41434 2.99496e-05 6.78482 0 7.15592C0.004163 10.824 2.97669 13.7966 6.64477 13.8008C10.3146 13.8107 13.2976 10.8437 13.3075 7.17392C13.3174 3.50411 10.3505 0.521094 6.68062 0.51118Z"/>
</svg>
