<svg width="12" height="13" viewBox="0 0 12 13" xmlns="http://www.w3.org/2000/svg">
<path d="M0.0839844 5.72987C0.124552 5.46578 0.363587 5.28587 0.617867 5.328C0.872147 5.37013 1.04537 5.61839 1.00481 5.88249C1.00437 5.88538 1.0039 5.88825 1.00341 5.89111C0.528618 8.79395 2.40949 11.5469 5.20446 12.04C7.99943 12.5331 10.6501 10.5797 11.1249 7.67684C11.5997 4.77399 9.71877 2.02105 6.92383 1.52793C5.20498 1.22468 3.45543 1.84826 2.27809 3.18379L4.3435 3.8985C4.58783 3.98293 4.71997 4.25707 4.6387 4.51084C4.63867 4.51089 4.63864 4.51098 4.63862 4.51104C4.55732 4.7648 4.29337 4.90204 4.04903 4.81763C4.04895 4.8176 4.04889 4.81757 4.04884 4.81757L1.25144 3.84913C1.06097 3.78325 0.932493 3.59811 0.932521 3.3896V0.484237C0.932521 0.216796 1.14126 0 1.39876 0C1.65627 0 1.86501 0.216796 1.86501 0.484237V2.25311C4.26608 -0.11874 8.06385 -0.0199175 10.3476 2.47382C12.6313 4.96755 12.5361 8.9119 10.135 11.2838C7.73395 13.6556 3.93621 13.5568 1.65247 11.0631C0.350229 9.64102 -0.230943 7.66495 0.0839844 5.72987Z"/>
</svg>
