<svg width="14" height="14" viewBox="0 0 14 14" xmlns="http://www.w3.org/2000/svg">
<path d="M12.4916 0H1.5085C0.676651 0 0 0.676651 0 1.5085V9.55408C0 10.3858 0.676651 11.0625 1.5085 11.0625H4.98927L6.14198 13.368C6.34279 13.7696 6.65553 14 7 14C7.34447 14 7.65721 13.7696 7.85802 13.368L9.01083 11.0625H12.4916C13.3233 11.0625 14 10.3858 14 9.55408V1.5085C14 0.676651 13.3233 0 12.4916 0V0ZM13.1797 9.55408C13.1797 9.93347 12.871 10.2422 12.4916 10.2422H8.75737C8.60196 10.2422 8.46001 10.33 8.39047 10.4689L7.12433 13.0011C7.07327 13.1032 7.02531 13.1534 7 13.1726C6.97469 13.1534 6.92673 13.1032 6.87567 13.0011L5.60953 10.4689C5.5401 10.33 5.39804 10.2422 5.24274 10.2422H1.5085C1.129 10.2422 0.820312 9.93347 0.820312 9.55408V1.5085C0.820312 1.129 1.129 0.820312 1.5085 0.820312H12.4916C12.871 0.820312 13.1797 1.129 13.1797 1.5085V9.55408Z" />
</svg>
