<svg width="14" height="14" viewBox="0 0 14 14" xmlns="http://www.w3.org/2000/svg">
<path d="M5.6875 14C5.6169 14 5.54576 13.9831 5.48103 13.9481C5.33865 13.8723 5.25 13.7235 5.25 13.5625V7.95084C5.25 7.74672 5.16423 7.55061 5.01373 7.41304L0.330795 3.1237C0.120163 2.93005 0 2.65587 0 2.37122V1.0208C0 0.457901 0.457901 0 1.0208 0H12.9792C13.5421 0 14 0.457901 14 1.0208V2.37122C14 2.65587 13.8798 2.93005 13.6698 3.1237L8.98744 7.41357C8.83577 7.55061 8.75 7.74672 8.75 7.95084V11.4999C8.75 11.8417 8.58028 12.1595 8.29562 12.3491L5.93018 13.9259C5.85722 13.9755 5.77263 14 5.6875 14ZM1.0208 0.875C0.940369 0.875 0.875 0.940369 0.875 1.0208V2.37122C0.875 2.41212 0.892517 2.45122 0.922852 2.4792L5.60408 6.76779C5.93488 7.07114 6.125 7.50223 6.125 7.95084V12.7446L7.81027 11.6212C7.85054 11.5943 7.875 11.5488 7.875 11.4999V7.95084C7.875 7.50169 8.06459 7.0706 8.39645 6.76779L13.0778 2.47856C13.1075 2.45122 13.125 2.41212 13.125 2.37122V1.0208C13.125 0.940369 13.0596 0.875 12.9792 0.875H1.0208Z"/>
</svg>
