<svg width="13" height="13" viewBox="0 0 13 13" xmlns="http://www.w3.org/2000/svg">
<path d="M0.203755 1.18754L5.51621 6.5L0.203755 11.8125C-0.0679183 12.0841 -0.0679183 12.5246 0.203755 12.7962C0.475428 13.0679 0.91587 13.0679 1.18754 12.7962L6.5 7.48379L11.8125 12.7962C12.0841 13.0679 12.5246 13.0679 12.7962 12.7962C13.0679 12.5246 13.0679 12.0841 12.7962 11.8125L7.48379 6.5L12.7962 1.18754C13.0679 0.91587 13.0679 0.475428 12.7962 0.203755C12.5246 -0.0679183 12.0841 -0.0679183 11.8125 0.203755L6.5 5.51621L1.18754 0.203755C0.91587 -0.0679183 0.475428 -0.0679183 0.203755 0.203755C-0.0679183 0.475428 -0.0679183 0.91587 0.203755 1.18754Z" />
</svg>
