<svg width="16" height="14" viewBox="0 0 16 14" xmlns="http://www.w3.org/2000/svg">
<path d="M14.6729 1.52345C12.9346 -0.121425 10.1121 -0.121425 8.37383 1.52345L8 1.87861L7.64484 1.54217C5.90651 -0.102713 3.08408 -0.102713 1.34578 1.54217C0.485993 2.34586 0 3.41129 0 4.57018C0 5.71035 0.467282 6.79446 1.32711 7.59823L7.60749 13.5608C7.71965 13.6543 7.85049 13.7104 8 13.7104C8.14955 13.7104 8.28038 13.6543 8.39251 13.5608L14.6729 7.59823C15.5327 6.7945 16 5.71039 16 4.57018C16 3.41129 15.514 2.34586 14.6729 1.52345Z" />
</svg>
