<svg width="19" height="19" viewBox="0 0 19 19" xmlns="http://www.w3.org/2000/svg">
<g clip-path="url(#clip0)">
<path d="M9.49998 2.375C13.7462 2.375 17.5511 5.16115 18.9682 9.3082C19.0106 9.43286 19.0106 9.56739 18.9682 9.69205C17.5511 13.8391 13.7462 16.6252 9.49998 16.6252C5.25378 16.6252 1.44885 13.8391 0.0317173 9.69205C-0.0106182 9.56739 -0.0106182 9.43286 0.0317173 9.3082C1.44889 5.16115 5.25381 2.375 9.49998 2.375ZM9.49998 15.4377C13.1727 15.4377 16.4738 13.0598 17.7767 9.50012C16.4738 5.94046 13.1727 3.56253 9.49998 3.56253C5.82727 3.56253 2.5262 5.94046 1.22328 9.50012C2.5262 13.0598 5.82727 15.4377 9.49998 15.4377Z" />
<path d="M9.4997 5.9375C11.4642 5.9375 13.0623 7.53556 13.0623 9.50006C13.0623 11.4646 11.4642 13.0626 9.4997 13.0626C7.5352 13.0626 5.93714 11.4646 5.93714 9.50006C5.93714 7.53553 7.5352 5.9375 9.4997 5.9375ZM9.4997 11.8751C10.8096 11.8751 11.8747 10.8099 11.8747 9.50006C11.8747 8.19018 10.8095 7.12503 9.4997 7.12503C8.18981 7.12503 7.12467 8.19021 7.12467 9.50006C7.12467 10.8099 8.18985 11.8751 9.4997 11.8751Z" />
</g>
<defs>
<clipPath id="clip0">
<rect width="19" height="19" fill="white" transform="matrix(-1 0 0 1 19 0)"/>
</clipPath>
</defs>
</svg>
