<svg width="12" height="7" viewBox="0 0 12 7" fill="none" xmlns="http://www.w3.org/2000/svg">
<path d="M6.00254 4.64774L1.51317 0.190257C1.38985 0.0675201 1.22498 4.23292e-07 1.04917 4.30976e-07C0.873268 4.38665e-07 0.708487 0.0675201 0.584975 0.190258L0.191805 0.580846C0.0680973 0.70339 -2.68073e-07 0.867201 -2.60443e-07 1.04177C-2.52812e-07 1.21633 0.0680973 1.37995 0.191805 1.50259L5.53678 6.80993C5.66068 6.93306 5.82624 7.00048 6.00224 7C6.17902 7.00048 6.34439 6.93316 6.46839 6.80993L11.8082 1.50753C11.9319 1.38489 12 1.22127 12 1.04661C12 0.872045 11.9319 0.708427 11.8082 0.58569L11.415 0.195198C11.1591 -0.0588985 10.7425 -0.0588984 10.4867 0.195198L6.00254 4.64774Z" fill="#8E8E8E"/>
</svg>
