<svg width="11" height="12" viewBox="0 0 11 12" xmlns="http://www.w3.org/2000/svg">
<path d="M10.6252 1.99998C10.6252 2.89748 9.89772 3.62505 9.00022 3.62505C8.10273 3.62505 7.37524 2.89748 7.37524 1.99998C7.37524 1.10257 8.10273 0.375 9.00022 0.375C9.89772 0.375 10.6252 1.10257 10.6252 1.99998Z" />
<path d="M9.00022 4.00005C7.89719 4.00005 7.00024 3.10301 7.00024 1.99998C7.00024 0.897039 7.89719 0 9.00022 0C10.1033 0 11.0002 0.897039 11.0002 1.99998C11.0002 3.10301 10.1033 4.00005 9.00022 4.00005ZM9.00022 0.750004C8.31074 0.750004 7.75025 1.31104 7.75025 1.99998C7.75025 2.68901 8.31074 3.25005 9.00022 3.25005C9.68971 3.25005 10.2502 2.68901 10.2502 1.99998C10.2502 1.31104 9.68971 0.750004 9.00022 0.750004Z" />
<path d="M10.6252 10.0001C10.6252 10.8975 9.89772 11.625 9.00022 11.625C8.10273 11.625 7.37524 10.8975 7.37524 10.0001C7.37524 9.10257 8.10273 8.375 9.00022 8.375C9.89772 8.375 10.6252 9.10257 10.6252 10.0001Z" />
<path d="M9.00022 12.0001C7.89719 12.0001 7.00024 11.103 7.00024 10.0001C7.00024 8.89704 7.89719 8 9.00022 8C10.1033 8 11.0002 8.89704 11.0002 10.0001C11.0002 11.103 10.1033 12.0001 9.00022 12.0001ZM9.00022 8.75C8.31074 8.75 7.75025 9.31104 7.75025 10.0001C7.75025 10.689 8.31074 11.25 9.00022 11.25C9.68971 11.25 10.2502 10.689 10.2502 10.0001C10.2502 9.31104 9.68971 8.75 9.00022 8.75Z" />
<path d="M3.62505 5.99998C3.62505 6.89748 2.89748 7.62496 1.99998 7.62496C1.10257 7.62496 0.375 6.89748 0.375 5.99998C0.375 5.10248 1.10257 4.375 1.99998 4.375C2.89748 4.375 3.62505 5.10248 3.62505 5.99998Z" />
<path d="M1.99998 7.99996C0.897039 7.99996 0 7.10301 0 5.99998C0 4.89695 0.897039 4 1.99998 4C3.10301 4 4.00005 4.89695 4.00005 5.99998C4.00005 7.10301 3.10301 7.99996 1.99998 7.99996ZM1.99998 4.75C1.31049 4.75 0.750004 5.31095 0.750004 5.99998C0.750004 6.68901 1.31049 7.24996 1.99998 7.24996C2.68956 7.24996 3.25005 6.68901 3.25005 5.99998C3.25005 5.31095 2.68956 4.75 1.99998 4.75Z" />
<path d="M3.18043 5.75991C3.00639 5.75991 2.83738 5.66937 2.74537 5.50741C2.60887 5.26791 2.69291 4.96239 2.93242 4.82534L7.57188 2.18036C7.81138 2.04285 8.11689 2.1269 8.25395 2.36732C8.39045 2.60682 8.30641 2.91233 8.06691 3.04939L3.42735 5.69436C3.34935 5.73886 3.26439 5.75991 3.18043 5.75991Z" />
<path d="M7.8194 9.88482C7.73535 9.88482 7.65039 9.86376 7.57239 9.81926L2.93283 7.17429C2.69333 7.03778 2.60938 6.73227 2.74588 6.49222C2.88184 6.25226 3.18781 6.16775 3.42786 6.30527L8.06742 8.95024C8.30692 9.08675 8.39087 9.39226 8.25437 9.63231C8.1619 9.79427 7.99289 9.88482 7.8194 9.88482Z" />
</svg>
