<svg width="11" height="11" viewBox="0 0 11 11" xmlns="http://www.w3.org/2000/svg">
<path d="M1.38329 1.38326C0.491261 2.27529 -3.29527e-07 3.4613 -2.74385e-07 4.7228C-2.19243e-07 5.9843 0.491262 7.17031 1.38329 8.06232C2.2753 8.95434 3.46131 9.44562 4.72278 9.44562C5.87613 9.44562 6.9662 9.03475 7.82637 8.28262L10.4493 10.9055C10.5753 11.0315 10.7795 11.0315 10.9055 10.9055C10.9685 10.8425 11 10.76 11 10.6774C11 10.5949 10.9685 10.5123 10.9055 10.4493L8.28261 7.8264C9.03472 6.96623 9.44561 5.87615 9.44561 4.7228C9.44561 3.46128 8.95434 2.27531 8.06231 1.38328C7.1703 0.491264 5.9843 6.92092e-07 4.7228 7.47234e-07C3.4613 8.02376e-07 2.2753 0.491243 1.38329 1.38326ZM7.60609 1.8395C9.19594 3.42937 9.19594 6.01621 7.60609 7.60608C6.01625 9.19593 3.42938 9.19593 1.83954 7.60608C1.04453 6.81107 0.647152 5.7671 0.647152 4.72278C0.647152 3.67872 1.04472 2.63432 1.83953 1.83948C3.42936 0.249672 6.01623 0.249672 7.60609 1.8395Z" />
</svg>
