<svg width="20" height="23" viewBox="0 0 20 23" xmlns="http://www.w3.org/2000/svg">
<path d="M11.2642 3.49516V3.86698L11.6203 3.974C14.0587 4.70685 15.8428 6.98151 15.8428 9.6704V11.9793C15.8428 13.4877 16.2508 14.9697 17.0232 16.2639C17.0232 16.2639 17.0233 16.264 17.0233 16.264L18.5603 18.8409H1.30566L2.84332 16.263L2.84339 16.2629C3.6148 14.9688 4.02284 13.4878 4.02284 11.9793V9.6704C4.02284 6.98151 5.80695 4.70685 8.24528 3.974L8.60136 3.86698V3.49516V1.842C8.60136 1.09956 9.2016 0.5 9.93279 0.5C10.664 0.5 11.2642 1.09956 11.2642 1.842V3.49516ZM1.27106 18.8989L1.27111 18.8988C1.27109 18.8988 1.27107 18.8988 1.27106 18.8989L1.23904 18.8798L1.27106 18.8989Z" />
<path d="M9.93266 21.604C9.17078 21.604 8.4822 21.2813 7.99059 20.762H11.8748C11.3831 21.2813 10.6945 21.604 9.93266 21.604Z" />
</svg>
