<svg width="29" height="27" viewBox="0 0 29 27" xmlns="http://www.w3.org/2000/svg">
<path d="M1.39919 14.6659L27.8338 14.6659C28.478 14.6659 29.0001 14.1434 29.0001 13.4996C29.0001 12.8559 28.478 12.3334 27.8338 12.3334L1.39919 12.3334C0.755069 12.3334 0.232947 12.8555 0.232947 13.4996C0.232947 14.1438 0.755011 14.6659 1.39919 14.6659Z"/>
<path d="M0.341718 14.3246L11.7704 25.7537C12.226 26.209 12.9639 26.209 13.4195 25.7537C13.8751 25.2981 13.8751 24.5595 13.4195 24.1043L2.8153 13.4997L13.4195 2.89507C13.8751 2.43984 13.8751 1.70124 13.4195 1.24602C13.1917 1.0182 12.8935 0.904297 12.595 0.904297C12.2964 0.904297 11.9982 1.0182 11.7704 1.24602L0.341718 12.6751C-0.113906 13.1307 -0.113906 13.8694 0.341718 14.3246Z" />
</svg>
