<svg width="19" height="17" viewBox="0 0 19 17" xmlns="http://www.w3.org/2000/svg">
<path d="M17.8685 6.7428L2.53878 0.146823C1.89297 -0.131085 1.16336 -0.00883183 0.634735 0.465712C0.106111 0.940333 -0.114986 1.67162 0.0577951 2.37416L1.42227 7.92277H8.10293C8.41035 7.92277 8.65961 8.18121 8.65961 8.50002C8.65961 8.8188 8.41038 9.07727 8.10293 9.07727H1.42227L0.0577951 14.6258C-0.114986 15.3284 0.106074 16.0597 0.634735 16.5343C1.16443 17.0098 1.89412 17.1306 2.53882 16.8532L17.8685 10.2572C18.5665 9.95694 19 9.2836 19 8.50002C19 7.71644 18.5665 7.04306 17.8685 6.7428Z" />
</svg>
