<svg width="12" height="13" viewBox="0 0 12 13" xmlns="http://www.w3.org/2000/svg">
<path d="M6 0.00231934C2.69147 0.00231934 0 2.69379 0 6.00232C0 9.31085 2.69147 12.0023 6 12.0023C9.30853 12.0023 12 9.31085 12 6.00232C12 2.69379 9.30853 0.00231934 6 0.00231934ZM8.20953 7.50479C8.405 7.70035 8.405 8.0163 8.20953 8.21185C8.11203 8.30936 7.98404 8.35834 7.85596 8.35834C7.72797 8.35834 7.59998 8.30936 7.50247 8.21185L6 6.70929L4.49753 8.21185C4.40002 8.30936 4.27203 8.35834 4.14404 8.35834C4.01596 8.35834 3.88797 8.30936 3.79047 8.21185C3.595 8.0163 3.595 7.70035 3.79047 7.50479L5.29303 6.00232L3.79047 4.49985C3.595 4.30429 3.595 3.98834 3.79047 3.79279C3.98602 3.59732 4.30197 3.59732 4.49753 3.79279L6 5.29535L7.50247 3.79279C7.69803 3.59732 8.01398 3.59732 8.20953 3.79279C8.405 3.98834 8.405 4.30429 8.20953 4.49985L6.70697 6.00232L8.20953 7.50479Z" />
</svg>
