<svg width="20" height="20" viewBox="0 0 20 20" xmlns="http://www.w3.org/2000/svg">
<path d="M14.203 12.2847C14.0238 12.1243 13.7486 12.1399 13.5891 12.3186C12.6821 13.3321 11.3743 13.913 9.99993 13.913C8.62602 13.913 7.31776 13.3321 6.4108 12.3186C6.25036 12.1399 5.97602 12.1243 5.79689 12.2847C5.61775 12.4447 5.60297 12.7195 5.76297 12.8986C6.83471 14.096 8.37906 14.7826 9.99993 14.7826C11.6212 14.7826 13.1656 14.0956 14.2369 12.8986C14.3969 12.7195 14.3817 12.4447 14.203 12.2847Z" />
<path d="M10 0C4.48609 0 0 4.48609 0 10C0 15.5139 4.48609 20 10 20C15.5139 20 20 15.5139 20 10C20 4.48609 15.5139 0 10 0ZM10 19.1304C4.96522 19.1304 0.869565 15.0348 0.869565 10C0.869565 4.96522 4.96522 0.869565 10 0.869565C15.0348 0.869565 19.1304 4.96522 19.1304 10C19.1304 15.0348 15.0348 19.1304 10 19.1304Z" />
<path d="M13.4784 6.95654C12.2797 6.95654 11.3044 7.93176 11.3044 9.13046C11.3044 9.37046 11.4992 9.56524 11.7392 9.56524C11.9792 9.56524 12.174 9.37046 12.174 9.13046C12.174 8.41133 12.7592 7.82611 13.4784 7.82611C14.1975 7.82611 14.7827 8.41133 14.7827 9.13046C14.7827 9.37046 14.9775 9.56524 15.2175 9.56524C15.4575 9.56524 15.6523 9.37046 15.6523 9.13046C15.6523 7.93176 14.6771 6.95654 13.4784 6.95654Z" />
<path d="M7.82616 9.13046C7.82616 9.37046 8.02094 9.56524 8.26094 9.56524C8.50094 9.56524 8.69573 9.37046 8.69573 9.13046C8.69573 7.93176 7.72051 6.95654 6.52181 6.95654C5.32312 6.95654 4.3479 7.93176 4.3479 9.13046C4.3479 9.37046 4.54268 9.56524 4.78268 9.56524C5.02268 9.56524 5.21747 9.37046 5.21747 9.13046C5.21747 8.41133 5.80268 7.82611 6.52181 7.82611C7.24094 7.82611 7.82616 8.41133 7.82616 9.13046Z" />
</svg>
