<svg width="24" height="16" viewBox="0 0 24 16" xmlns="http://www.w3.org/2000/svg">
<path d="M22.7692 -0.000244141H1.23079C0.553827 -0.000244141 0 0.553583 0 1.2305V14.769C0 15.4458 0.553827 15.9998 1.23079 15.9998H22.7692C23.4461 15.9998 24 15.4459 24 14.769V1.2305C24 0.553583 23.4461 -0.000244141 22.7692 -0.000244141ZM22.3073 0.92277L12.708 8.12285C12.5354 8.25419 12.2704 8.33636 11.9999 8.33515C11.7295 8.33636 11.4646 8.25419 11.2919 8.12285L1.69261 0.92277H22.3073ZM17.1797 8.59793L22.4104 15.0595C22.4157 15.066 22.4221 15.0709 22.4277 15.0767H1.57228C1.57781 15.0706 1.58428 15.066 1.58953 15.0595L6.8203 8.59793C6.98056 8.39979 6.95019 8.1093 6.75167 7.94866C6.55353 7.7884 6.26305 7.81877 6.10274 8.01696L0.923061 14.4154V1.49971L10.7384 8.86122C11.1073 9.136 11.5562 9.25694 11.9999 9.25816C12.4429 9.25722 12.8922 9.13628 13.2614 8.86122L23.0767 1.49971V14.4153L17.8972 8.01696C17.7369 7.81882 17.4461 7.78835 17.2482 7.94866C17.0498 8.10893 17.0193 8.39979 17.1797 8.59793Z" />
</svg>
