<svg width="41" height="9" viewBox="0 0 41 9" xmlns="http://www.w3.org/2000/svg">
<path d="M11.2817 5.4884V0.786499L12.9738 0.786499V5.42955C12.9738 6.52053 13.6089 7.27048 14.8194 7.27048C16.0299 7.27048 16.6521 6.51977 16.6521 5.42955V0.786499L18.3563 0.786499V5.47709C18.3563 7.42364 17.2041 8.7485 14.8194 8.7485C12.4332 8.7485 11.2817 7.41157 11.2817 5.4884Z" />
<path d="M22.3772 7.50539L23.2815 6.23937C23.8342 6.81429 24.6915 7.29413 25.7727 7.29413C26.6898 7.29413 27.1359 6.87238 27.1359 6.42649C27.1359 5.04277 22.6237 5.99266 22.6237 3.04944C22.6237 1.74797 23.7517 0.669067 25.5966 0.669067C26.8426 0.669067 27.8761 1.04404 28.6519 1.76004L27.7234 2.97928C27.0898 2.39305 26.243 2.1237 25.4438 2.1237C24.7271 2.1237 24.3279 2.43983 24.3279 2.90911C24.3279 4.15174 28.828 3.31955 28.828 6.23937C28.828 7.66986 27.8058 8.74877 25.6911 8.74877C24.1872 8.74877 23.1061 8.24402 22.3772 7.50539Z"/>
<path d="M32.7429 4.67148C32.7429 2.29488 34.4842 0.592773 36.8658 0.592773C39.2588 0.592773 41 2.29488 41 4.67148C41 7.04733 39.2588 8.74943 36.8658 8.74943C34.4842 8.74943 32.7429 7.04733 32.7429 4.67148ZM39.2701 4.67148C39.2701 3.19421 38.3228 2.08287 36.8658 2.08287C35.4088 2.08287 34.4728 3.19421 34.4728 4.67148C34.4728 6.13743 35.4088 7.26009 36.8658 7.26009C38.3228 7.26009 39.2701 6.13743 39.2701 4.67148Z" />
<path d="M5.49788 5.62874C6.34393 5.42955 7.21417 4.69092 7.21417 3.30721C7.21417 1.85333 6.21539 0.786499 4.58152 0.786499L0.914551 0.786499L0.914551 2.25169H2.58321H2.70721L4.33504 2.25169C5.00492 2.25169 5.50998 2.65006 5.50998 3.30721C5.50998 3.9636 5.00416 4.36272 4.33504 4.36272H2.70721H2.58321H0.915307L0.915307 8.60741H2.58397V5.82867H3.80654L5.34515 8.60817H7.26105L5.49788 5.62874Z" />
</svg>
