<?xml version="1.0" standalone="no"?>
<!DOCTYPE svg PUBLIC "-//W3C//DTD SVG 20010904//EN"
 "http://www.w3.org/TR/2001/REC-SVG-20010904/DTD/svg10.dtd">
<svg version="1.0" xmlns="http://www.w3.org/2000/svg"
 width="512.000000pt" height="512.000000pt" viewBox="0 0 512.000000 512.000000"
 preserveAspectRatio="xMidYMid meet">
<metadata>
Created by potrace 1.11, written by Peter Selinger 2001-2013
</metadata>
<g transform="translate(0.000000,512.000000) scale(0.100000,-0.100000)"
fill="#000000" stroke="none">
<path d="M0 2560 l0 -2560 2560 0 2560 0 0 2560 0 2560 -2560 0 -2560 0 0
-2560z m2580 1855 c0 -25 1 -25 90 -25 l90 0 0 -29 c0 -28 2 -29 60 -36 54 -6
60 -9 60 -30 0 -21 6 -24 60 -30 58 -7 60 -8 60 -36 0 -26 3 -29 35 -29 30 0
35 -3 35 -24 0 -22 5 -25 54 -31 50 -7 55 -10 58 -34 3 -24 7 -26 61 -29 56
-3 57 -4 57 -32 0 -28 3 -30 35 -30 32 0 35 -2 35 -30 l0 -30 60 0 60 0 0 -30
0 -30 60 0 c60 0 60 0 60 -29 0 -26 4 -30 33 -33 26 -2 33 -8 35 -30 3 -25 7
-27 60 -30 53 -3 57 -5 60 -29 3 -24 8 -27 58 -34 49 -6 54 -9 54 -31 0 -21 5
-24 35 -24 32 0 35 -2 35 -30 0 -27 3 -30 30 -30 27 0 30 -3 30 -30 0 -27 3
-30 30 -30 28 0 30 -3 30 -35 0 -32 2 -35 30 -35 l30 0 -2 -882 -3 -883 -27
-3 c-27 -3 -28 -6 -28 -57 0 -53 0 -54 -32 -57 -27 -2 -34 -8 -36 -30 -3 -24
-8 -27 -57 -33 -49 -7 -54 -10 -57 -34 -2 -21 -9 -27 -35 -29 -27 -3 -33 -8
-33 -27 0 -21 -6 -24 -60 -30 -58 -7 -60 -8 -60 -36 0 -29 0 -29 -60 -29 l-60
0 0 -30 0 -30 -60 0 -60 0 0 -30 c0 -27 -3 -30 -30 -30 -27 0 -30 -3 -30 -30
l0 -30 -60 0 -60 0 0 -30 0 -30 -60 0 -60 0 0 -30 c0 -28 -3 -30 -35 -30 -32
0 -35 -2 -35 -30 l0 -30 -60 0 c-60 0 -60 0 -60 -29 0 -28 -2 -29 -60 -36 -54
-6 -60 -9 -60 -30 0 -21 -6 -24 -59 -30 -55 -6 -60 -9 -63 -33 -3 -25 -7 -27
-60 -30 -54 -3 -58 -5 -58 -27 0 -25 -1 -25 -95 -25 -95 0 -95 0 -95 25 0 23
-4 25 -47 25 -27 0 -65 3 -85 6 -32 6 -38 11 -38 30 0 21 -5 24 -35 24 -32 0
-35 3 -35 29 0 28 -2 29 -60 36 -54 6 -60 9 -60 30 0 21 -6 24 -60 30 -58 7
-60 8 -60 36 0 29 0 29 -60 29 l-60 0 0 30 c0 28 -3 30 -35 30 -32 0 -35 2
-35 30 l0 30 -60 0 -60 0 0 30 0 30 -60 0 c-60 0 -60 0 -60 29 0 28 -2 29 -60
36 -55 6 -60 9 -60 31 0 20 -5 24 -30 24 -27 0 -30 3 -30 30 l0 30 -60 0 -60
0 0 30 c0 28 -3 30 -37 31 -21 1 -48 0 -60 -1 -19 -1 -23 4 -23 29 0 26 -4 30
-32 33 -27 2 -34 8 -36 30 -3 21 -9 27 -30 30 -22 2 -28 9 -30 36 -3 28 -7 32
-33 32 -29 0 -29 0 -29 60 l0 60 -30 0 -30 0 0 820 0 820 30 0 30 0 0 60 c0
60 0 60 29 60 26 0 30 4 33 33 2 26 8 33 30 35 21 3 27 9 30 30 2 22 9 28 36
30 26 3 32 8 32 27 0 22 5 25 60 31 58 6 60 8 60 35 0 29 1 29 60 29 l60 0 0
30 0 30 60 0 60 0 0 30 c0 28 3 30 35 30 32 0 35 2 35 30 0 30 1 30 55 30 54
0 55 0 55 30 l0 30 60 0 c59 0 60 0 60 29 0 27 2 29 60 35 55 6 60 9 60 31 0
22 5 25 35 25 32 0 35 3 35 29 0 28 2 29 60 36 54 6 60 9 60 30 0 21 6 24 60
30 58 7 60 8 60 36 0 29 0 29 60 29 l60 0 0 30 0 30 65 0 c63 0 65 1 65 25 0
24 3 25 60 25 57 0 60 -1 60 -25z"/>
<path d="M2220 3870 c0 -28 -3 -30 -35 -30 -32 0 -35 -2 -35 -30 l0 -30 -60 0
c-60 0 -60 0 -60 -29 0 -28 -2 -29 -60 -36 -54 -6 -60 -9 -60 -30 0 -19 -6
-24 -32 -27 -27 -2 -34 -8 -36 -30 -3 -24 -8 -27 -63 -33 -57 -7 -59 -8 -59
-36 0 -28 -1 -29 -54 -29 -52 0 -55 -1 -58 -27 -3 -27 -6 -28 -65 -31 -62 -3
-63 -3 -63 -32 0 -27 -3 -30 -30 -30 -27 0 -30 -3 -30 -30 0 -27 -3 -30 -29
-30 -25 0 -30 -4 -33 -27 -2 -22 -9 -29 -30 -31 l-28 -3 0 -700 0 -699 25 0
c21 0 25 -5 25 -30 0 -28 3 -30 35 -30 32 0 35 -2 35 -30 0 -27 3 -30 30 -30
27 0 30 -3 30 -30 0 -29 1 -29 63 -32 59 -3 62 -4 65 -30 3 -27 6 -28 58 -28
53 0 54 -1 54 -29 0 -27 2 -29 59 -35 56 -6 60 -9 63 -34 2 -22 9 -28 36 -30
26 -3 32 -8 32 -27 0 -21 6 -24 60 -30 54 -6 60 -9 60 -30 0 -22 6 -25 60 -31
58 -6 60 -8 60 -35 0 -26 4 -29 30 -29 25 0 30 -4 30 -24 0 -20 6 -24 46 -30
26 -3 79 -6 119 -6 l72 0 7 46 c8 60 8 218 0 278 -6 43 -9 46 -35 46 -26 0
-29 4 -29 30 l0 30 -60 0 -60 0 0 30 0 30 -60 0 -60 0 0 30 0 30 -60 0 -60 0
0 30 0 30 -60 0 -60 0 0 30 0 30 -65 0 -65 0 0 30 0 30 -60 0 -60 0 0 215 0
215 394 0 393 0 7 99 c4 55 4 123 0 150 l-7 51 -393 0 -394 0 0 215 0 215 60
0 60 0 0 30 0 30 65 0 65 0 0 30 0 30 60 0 60 0 0 30 0 30 60 0 c60 0 60 0 60
30 0 29 1 29 63 32 59 3 62 4 65 30 3 25 7 27 60 30 54 3 57 5 60 30 3 21 9
27 30 30 l27 3 3 153 3 152 -31 0 c-27 0 -30 3 -30 30 l0 30 -90 0 -90 0 0
-30z"/>
<path d="M2640 3715 l0 -185 24 0 c19 0 24 -6 30 -37 3 -21 6 -59 6 -85 0 -43
2 -47 28 -50 26 -3 27 -6 30 -65 3 -62 3 -63 32 -63 30 0 30 0 30 -60 0 -60 0
-60 30 -60 29 0 29 -1 32 -62 3 -60 4 -63 31 -66 25 -3 27 -7 27 -50 0 -26 3
-64 6 -84 5 -31 11 -38 29 -38 20 0 23 -6 30 -65 6 -59 9 -65 29 -65 20 0 24
-7 29 -44 4 -24 4 -67 0 -95 -5 -44 -9 -51 -28 -51 -25 0 -35 -34 -35 -122 0
-47 -1 -48 -30 -48 -30 0 -30 0 -30 -59 0 -58 -1 -60 -27 -63 -27 -3 -28 -6
-31 -65 -3 -62 -3 -63 -32 -63 -30 0 -30 0 -30 -60 l0 -60 -30 0 c-29 0 -30
-2 -30 -44 0 -24 -3 -64 -6 -90 -6 -39 -10 -46 -29 -46 -20 0 -23 -7 -29 -60
-6 -55 -9 -60 -31 -60 l-25 0 0 -185 0 -185 30 0 c25 0 30 -4 30 -25 0 -20 5
-25 25 -25 20 0 25 5 25 24 0 22 5 24 65 31 60 6 65 8 65 31 0 20 5 24 30 24
26 0 30 3 30 29 0 28 2 29 60 36 l60 7 0 38 c0 20 3 58 6 84 6 39 10 46 29 46
20 0 23 6 30 65 6 59 9 65 30 65 21 0 24 6 30 60 6 54 9 60 30 60 19 0 23 7
29 46 3 26 6 66 6 90 l0 44 60 0 60 0 0 -60 0 -60 30 0 30 0 0 -60 0 -60 30 0
c27 0 30 -3 30 -30 l0 -30 60 0 60 0 0 30 c0 28 3 30 35 30 32 0 35 2 35 30 0
27 3 30 30 30 27 0 30 3 30 30 0 25 4 30 25 30 l25 0 0 119 0 120 -27 3 c-27
3 -28 6 -31 66 -3 61 -3 62 -32 62 -30 0 -30 0 -30 60 l0 60 -30 0 -30 0 0 60
0 60 -30 0 -30 0 0 90 0 90 29 0 c27 0 29 2 35 60 6 55 9 60 31 60 23 0 24 4
27 63 3 59 4 62 31 65 26 3 27 5 27 63 0 58 0 59 29 59 l28 0 6 80 c3 44 3 98
0 120 -5 34 -9 40 -29 40 -20 0 -24 5 -24 30 0 27 -3 30 -30 30 -27 0 -30 3
-30 30 0 28 -3 30 -35 30 -32 0 -35 2 -35 30 l0 30 -60 0 c-57 0 -60 -1 -60
-25 0 -21 -5 -25 -30 -25 l-30 0 0 -65 0 -65 -30 0 -30 0 0 -60 0 -60 -35 0
c-32 0 -35 2 -35 30 0 25 -4 30 -24 30 -22 0 -25 5 -31 60 -6 54 -9 60 -30 60
-21 0 -24 6 -30 65 -7 59 -10 65 -30 65 -18 0 -24 7 -29 38 -3 20 -6 58 -6 84
0 43 -2 47 -27 50 -23 2 -29 8 -31 36 -3 26 -8 32 -27 32 -18 0 -24 6 -27 28
-2 22 -8 28 -35 30 -29 3 -33 7 -33 33 0 26 -3 29 -30 29 -27 0 -30 3 -30 30
l0 30 -120 0 -120 0 0 -185z"/>
</g>
</svg>
