<svg width="69" height="69" viewBox="0 0 69 69" fill="none" xmlns="http://www.w3.org/2000/svg">
<path d="M34.5052 0C23.4931 0 14.4912 9.00189 14.4912 20.014C14.4912 31.0262 23.4931 40.0281 34.5052 40.0281C45.5174 40.0281 54.5193 31.0262 54.5193 20.014C54.5193 9.00189 45.5174 0 34.5052 0Z" fill="white" fill-opacity="0.8"/>
<path d="M68.8525 56.022C68.3281 54.711 67.629 53.4874 66.8424 52.3512C62.8221 46.4081 56.617 42.4753 49.6252 41.5139C48.7513 41.4266 47.7899 41.6012 47.0907 42.1257C43.42 44.835 39.0502 46.2333 34.5054 46.2333C29.9606 46.2333 25.5908 44.835 21.9201 42.1257C21.2209 41.6012 20.2595 41.3391 19.3856 41.5139C12.3938 42.4753 6.10123 46.4081 2.16838 52.3512C1.38181 53.4874 0.682565 54.7984 0.158297 56.022C-0.103837 56.5464 -0.0165152 57.1581 0.245619 57.6826C0.944867 58.9061 1.81876 60.1298 2.60533 61.1785C3.82884 62.8391 5.13985 64.3248 6.62567 65.7231C7.84918 66.9466 9.24751 68.0828 10.646 69.219C17.5503 74.3755 25.8531 77.0847 34.4181 77.0847C42.983 77.0847 51.2858 74.3754 58.1902 69.219C59.5885 68.1703 60.9868 66.9466 62.2105 65.7231C63.6088 64.3248 65.0072 62.839 66.2308 61.1785C67.1047 60.0423 67.8915 58.9061 68.5906 57.6826C69.0273 57.1581 69.1147 56.5462 68.8525 56.022Z" fill="white" fill-opacity="0.8"/>
</svg>
