<svg width="11" height="13" viewBox="0 0 11 13" xmlns="http://www.w3.org/2000/svg">
<path d="M11 9.54795C10.9635 9.6467 10.9281 9.75274 10.8874 9.85696C10.5503 10.7312 10.0386 11.5073 9.41773 12.2186C9.29789 12.3571 9.15827 12.4824 9.01408 12.5987C8.72913 12.8297 8.40118 12.9693 8.02188 12.982C7.73693 12.9908 7.46339 12.9412 7.19974 12.8385C7.00875 12.7638 6.82081 12.6803 6.62717 12.6129C5.99867 12.3943 5.3736 12.4231 4.75538 12.657C4.53244 12.7415 4.31254 12.8348 4.08542 12.9081C3.82215 12.9926 3.54899 13.0269 3.27088 12.9766C3.02816 12.9332 2.81587 12.825 2.6188 12.6854C2.37417 12.512 2.16873 12.3006 1.97661 12.0769C1.06697 11.0143 0.456352 9.81287 0.161507 8.46715C0.0344388 7.88848 -0.0264323 7.30508 0.0108513 6.71367C0.0546024 6.00455 0.226564 5.32932 0.622226 4.72077C1.11871 3.9559 1.81911 3.45486 2.74054 3.24824C3.29485 3.12325 3.83394 3.17427 4.36238 3.36922C4.64048 3.47125 4.91935 3.57219 5.1986 3.6724C5.45578 3.76496 5.71182 3.76496 5.96938 3.67058C6.25433 3.56636 6.53967 3.46251 6.82576 3.36084C7.11908 3.25845 7.41735 3.17463 7.72856 3.15095C8.19422 3.11487 8.64847 3.17281 9.09055 3.31456C9.71714 3.51535 10.2269 3.87063 10.6119 4.38808C10.6222 4.40229 10.6336 4.41796 10.6412 4.42926C9.67035 5.07752 9.11756 5.93385 9.19783 7.09337C9.27887 8.25361 9.93095 9.03852 11 9.54795ZM5.55393 3.00738C5.84041 3.01466 6.11585 2.96183 6.38102 2.86089C7.59045 2.40102 8.22275 1.17555 8.20373 0.238316C8.20221 0.162886 8.19688 0.0874555 8.19346 0C8.06905 0.0178555 7.95568 0.0262366 7.84687 0.0524733C6.96386 0.259816 6.28439 0.731711 5.83774 1.49585C5.57638 1.94333 5.43105 2.41851 5.47556 2.93778C5.4786 2.9928 5.49953 3.00665 5.55393 3.00738Z" />
</svg>
