<svg width="17" height="17" viewBox="0 0 17 17" fill="none" xmlns="http://www.w3.org/2000/svg">
<path d="M16.3787 5.2042C16.3415 4.36012 16.205 3.77982 16.0094 3.27699C15.8076 2.74324 15.4973 2.26537 15.0906 1.86812C14.6933 1.46469 14.2122 1.15121 13.6845 0.952641C13.1786 0.757107 12.6013 0.620609 11.757 0.583393C10.9065 0.543026 10.6365 0.533691 8.47924 0.533691C6.32201 0.533691 6.052 0.543026 5.2046 0.580241C4.36036 0.617457 3.77995 0.754076 3.27714 0.949489C2.74317 1.15121 2.26522 1.46154 1.86789 1.86812C1.46438 2.26537 1.15096 2.74639 0.952232 3.27395C0.756661 3.77982 0.620137 4.35697 0.582914 5.20105C0.542539 6.05143 0.533203 6.3214 0.533203 8.47821C0.533203 10.635 0.542539 10.905 0.579762 11.7522C0.616985 12.5963 0.75363 13.1766 0.949201 13.6794C1.15096 14.2132 1.46438 14.6911 1.86789 15.0883C2.26522 15.4917 2.74632 15.8052 3.27399 16.0038C3.77995 16.1993 4.35721 16.3358 5.20157 16.373C6.04885 16.4104 6.31898 16.4196 8.47621 16.4196C10.6334 16.4196 10.9035 16.4104 11.7508 16.373C12.5951 16.3358 13.1755 16.1993 13.6783 16.0038C14.7461 15.591 15.5904 14.7469 16.0032 13.6794C16.1987 13.1736 16.3353 12.5963 16.3725 11.7522C16.4098 10.905 16.4191 10.635 16.4191 8.47821C16.4191 6.3214 16.4159 6.05143 16.3787 5.2042ZM14.9479 11.6902C14.9137 12.466 14.7833 12.8849 14.6747 13.1642C14.4077 13.8563 13.8584 14.4056 13.1662 14.6725C12.8868 14.7811 12.4647 14.9114 11.6918 14.9455C10.8537 14.9828 10.6024 14.992 8.48239 14.992C6.36239 14.992 6.10789 14.9828 5.27287 14.9455C4.49689 14.9114 4.07786 14.7811 3.7985 14.6725C3.45404 14.5452 3.1405 14.3435 2.886 14.0797C2.62217 13.8221 2.42041 13.5118 2.2931 13.1674C2.18446 12.8881 2.05412 12.466 2.02005 11.6933C1.98271 10.8554 1.9735 10.604 1.9735 8.48439C1.9735 6.3648 1.98271 6.11035 2.02005 5.2756C2.05412 4.49977 2.18446 4.08082 2.2931 3.80152C2.42041 3.457 2.62217 3.14364 2.88915 2.88907C3.14668 2.62529 3.45707 2.42357 3.80166 2.29641C4.08101 2.18779 4.50319 2.05747 5.27602 2.02329C6.11408 1.98607 6.36554 1.97674 8.48542 1.97674C10.6086 1.97674 10.8599 1.98607 11.6949 2.02329C12.4709 2.05747 12.89 2.18779 13.1693 2.29641C13.5138 2.42357 13.8273 2.62529 14.0818 2.88907C14.3456 3.14667 14.5474 3.457 14.6747 3.80152C14.7833 4.08082 14.9137 4.5028 14.9479 5.2756C14.9851 6.1135 14.9944 6.3648 14.9944 8.48439C14.9944 10.604 14.9851 10.8523 14.9479 11.6902Z" fill="url(#paint0_linear)"/>
<path d="M8.47912 4.39746C6.22574 4.39746 4.39746 6.22527 4.39746 8.47834C4.39746 10.7314 6.22574 12.5592 8.47912 12.5592C10.7326 12.5592 12.5608 10.7314 12.5608 8.47834C12.5608 6.22527 10.7326 4.39746 8.47912 4.39746ZM8.47912 11.1255C7.01724 11.1255 5.83145 9.94005 5.83145 8.47834C5.83145 7.01662 7.01724 5.83117 8.47912 5.83117C9.94111 5.83117 11.1268 7.01662 11.1268 8.47834C11.1268 9.94005 9.94111 11.1255 8.47912 11.1255Z" fill="url(#paint1_linear)"/>
<path d="M13.6735 4.2359C13.6735 4.76201 13.2468 5.1886 12.7205 5.1886C12.1942 5.1886 11.7676 4.76201 11.7676 4.2359C11.7676 3.70967 12.1942 3.2832 12.7205 3.2832C13.2468 3.2832 13.6735 3.70967 13.6735 4.2359Z" fill="url(#paint2_linear)"/>
<defs>
<linearGradient id="paint0_linear" x1="2.8602" y1="14.0941" x2="14.0921" y2="2.86069" gradientUnits="userSpaceOnUse">
<stop stop-color="#FFC107"/>
<stop offset="0.507" stop-color="#F44336"/>
<stop offset="0.99" stop-color="#9C27B0"/>
</linearGradient>
<linearGradient id="paint1_linear" x1="5.59324" y1="11.3644" x2="11.3639" y2="5.59191" gradientUnits="userSpaceOnUse">
<stop stop-color="#FFC107"/>
<stop offset="0.507" stop-color="#F44336"/>
<stop offset="0.99" stop-color="#9C27B0"/>
</linearGradient>
<linearGradient id="paint2_linear" x1="12.0468" y1="4.90967" x2="13.3939" y2="3.56196" gradientUnits="userSpaceOnUse">
<stop stop-color="#FFC107"/>
<stop offset="0.507" stop-color="#F44336"/>
<stop offset="0.99" stop-color="#9C27B0"/>
</linearGradient>
</defs>
</svg>
