<svg width="14" height="13" viewBox="0 0 14 13" fill="none" xmlns="http://www.w3.org/2000/svg">
<path d="M12.9868 3.82202C12.9564 3.13128 12.8447 2.65641 12.6847 2.24492C12.5196 1.80814 12.2657 1.41709 11.9329 1.09201C11.6079 0.761864 11.2142 0.50533 10.7825 0.342839C10.3686 0.182828 9.89624 0.0711271 9.2055 0.0406724C8.5096 0.00763847 8.28868 0 6.5237 0C4.75871 0 4.53779 0.00763847 3.84448 0.0380932C3.15374 0.0685479 2.67887 0.180347 2.26748 0.34026C1.8306 0.50533 1.43955 0.759285 1.11447 1.09201C0.784325 1.41709 0.52789 1.81072 0.3653 2.24244C0.205288 2.65641 0.0935881 3.1287 0.0631333 3.81944C0.0300994 4.51533 0.0224609 4.73625 0.0224609 6.50124C0.0224609 8.26622 0.0300994 8.48714 0.0605541 9.18046C0.0910088 9.8712 0.202808 10.3461 0.36282 10.7576C0.52789 11.1943 0.784325 11.5854 1.11447 11.9105C1.43955 12.2406 1.83318 12.4971 2.2649 12.6596C2.67887 12.8197 3.15116 12.9314 3.842 12.9618C4.53521 12.9924 4.75623 12.9999 6.52122 12.9999C8.2862 12.9999 8.50712 12.9924 9.20044 12.9618C9.89118 12.9314 10.3661 12.8197 10.7774 12.6596C11.6511 12.3219 12.3418 11.6311 12.6796 10.7576C12.8395 10.3436 12.9513 9.8712 12.9818 9.18046C13.0122 8.48714 13.0199 8.26622 13.0199 6.50124C13.0199 4.73625 13.0173 4.51533 12.9868 3.82202ZM11.8162 9.12967C11.7882 9.76456 11.6816 10.1074 11.5927 10.336C11.3742 10.9023 10.9248 11.3518 10.3584 11.5702C10.1299 11.6591 9.78454 11.7657 9.15213 11.7936C8.46645 11.8242 8.26081 11.8317 6.52628 11.8317C4.79175 11.8317 4.58353 11.8242 3.90033 11.7936C3.26544 11.7657 2.9226 11.6591 2.69404 11.5702C2.41221 11.4661 2.15568 11.301 1.94746 11.0851C1.7316 10.8743 1.56652 10.6204 1.46236 10.3385C1.37348 10.11 1.26684 9.76456 1.23896 9.13225C1.20841 8.44657 1.20087 8.24083 1.20087 6.5063C1.20087 4.77177 1.20841 4.56355 1.23896 3.88045C1.26684 3.24556 1.37348 2.90272 1.46236 2.67416C1.56652 2.39223 1.7316 2.1358 1.95004 1.92748C2.16074 1.71161 2.41469 1.54654 2.69662 1.44248C2.92518 1.3536 3.2706 1.24696 3.90291 1.21898C4.58858 1.18853 4.79433 1.18089 6.52876 1.18089C8.26587 1.18089 8.47151 1.18853 9.15471 1.21898C9.78959 1.24696 10.1324 1.3536 10.361 1.44248C10.6428 1.54654 10.8994 1.71161 11.1076 1.92748C11.3234 2.13828 11.4885 2.39223 11.5927 2.67416C11.6816 2.90272 11.7882 3.24804 11.8162 3.88045C11.8466 4.56612 11.8543 4.77177 11.8543 6.5063C11.8543 8.24083 11.8466 8.44399 11.8162 9.12967Z" fill="white"/>
<path d="M6.5231 3.16174C4.67945 3.16174 3.18359 4.6575 3.18359 6.50125C3.18359 8.345 4.67945 9.84075 6.5231 9.84075C8.36685 9.84075 9.8626 8.345 9.8626 6.50125C9.8626 4.6575 8.36685 3.16174 6.5231 3.16174ZM6.5231 8.6675C5.32703 8.6675 4.35684 7.69741 4.35684 6.50125C4.35684 5.30508 5.32703 4.33499 6.5231 4.33499C7.71926 4.33499 8.68935 5.30508 8.68935 6.50125C8.68935 7.69741 7.71926 8.6675 6.5231 8.6675Z" fill="white"/>
<path d="M10.7749 3.0295C10.7749 3.46003 10.4258 3.80912 9.9952 3.80912C9.56467 3.80912 9.21558 3.46003 9.21558 3.0295C9.21558 2.59887 9.56467 2.24988 9.9952 2.24988C10.4258 2.24988 10.7749 2.59887 10.7749 3.0295Z" fill="white"/>
</svg>
