<svg width="13" height="11" viewBox="0 0 13 11" xmlns="http://www.w3.org/2000/svg">
<path d="M12.9998 1.69125C12.5393 1.89327 12.0486 2.02718 11.5369 2.0922C12.0633 1.77794 12.465 1.2841 12.6539 0.688865C12.1631 0.981452 11.6213 1.18812 11.0439 1.30345C10.5779 0.807293 9.91376 0.5 9.18926 0.5C7.7836 0.5 6.65196 1.64093 6.65196 3.03962C6.65196 3.24087 6.66899 3.43438 6.71079 3.6186C4.59998 3.51565 2.73223 2.50399 1.47751 0.962875C1.25846 1.34293 1.12997 1.77794 1.12997 2.24623C1.12997 3.12554 1.58278 3.90499 2.25774 4.35626C1.84983 4.34852 1.44965 4.23009 1.11062 4.04355C1.11062 4.05129 1.11062 4.06135 1.11062 4.07141C1.11062 5.30523 1.9907 6.33006 3.14479 6.56614C2.93812 6.62264 2.71288 6.64973 2.47912 6.64973C2.31657 6.64973 2.15247 6.64045 1.99844 6.60639C2.32741 7.61186 3.2609 8.35107 4.37087 8.37507C3.50704 9.0508 2.41023 9.45795 1.22285 9.45795C1.01464 9.45795 0.814936 9.44866 0.615234 9.42311C1.73991 10.1484 3.07281 10.5625 4.5102 10.5625C9.18229 10.5625 11.7366 6.69231 11.7366 3.33762C11.7366 3.22539 11.7327 3.11702 11.7273 3.00943C12.2312 2.65183 12.6546 2.20521 12.9998 1.69125Z" />
</svg>
