<svg width="17" height="10" viewBox="0 0 17 10" xmlns="http://www.w3.org/2000/svg">
<path fill-rule="evenodd" clip-rule="evenodd" d="M14.0588 5.81458C14.5935 6.33668 15.1578 6.8279 15.6373 7.40265C15.8492 7.65806 16.0497 7.92163 16.2032 8.21804C16.4205 8.63939 16.2236 9.10307 15.8459 9.12823L13.4977 9.12717C12.8921 9.17744 12.4089 8.93357 12.0027 8.51942C11.6776 8.18821 11.3765 7.83572 11.0639 7.49333C10.9357 7.35339 10.8016 7.22171 10.6413 7.11763C10.3208 6.90952 10.0425 6.97324 9.85933 7.30763C9.67276 7.64773 9.63045 8.02433 9.61212 8.40337C9.58697 8.9564 9.41983 9.1018 8.8644 9.12712C7.67738 9.18311 6.55084 9.00349 5.50433 8.40459C4.58168 7.87661 3.86621 7.13125 3.24347 6.28742C2.03098 4.64431 1.10245 2.8388 0.267927 0.982714C0.0800828 0.564535 0.217458 0.340058 0.678781 0.332113C1.44483 0.317229 2.21077 0.318289 2.97772 0.331054C3.28906 0.335609 3.49518 0.514216 3.6154 0.808398C4.02985 1.82765 4.53698 2.79738 5.17355 3.69624C5.34307 3.93555 5.51592 4.17486 5.76208 4.3433C6.03439 4.5298 6.24172 4.46798 6.36983 4.16458C6.45112 3.97221 6.48671 3.765 6.50503 3.55895C6.56573 2.85009 6.57372 2.14244 6.46728 1.43606C6.40192 0.995215 6.15365 0.709825 5.71383 0.626401C5.48939 0.583868 5.52281 0.500338 5.63148 0.37221C5.82023 0.151229 5.99774 0.0136719 6.35161 0.0136719H9.00543C9.42322 0.0961424 9.516 0.28386 9.5732 0.704316L9.57547 3.65265C9.57092 3.81542 9.65677 4.29843 9.94989 4.40617C10.1845 4.48287 10.3391 4.29515 10.4799 4.14636C11.1153 3.47187 11.5688 2.67476 11.9739 1.84937C12.1537 1.48644 12.3083 1.10952 12.4581 0.732919C12.5691 0.453462 12.7433 0.315958 13.058 0.322049L15.6122 0.324327C15.6879 0.324327 15.7645 0.325439 15.8379 0.337993C16.2683 0.411353 16.3862 0.596528 16.2533 1.01688C16.0439 1.67638 15.6363 2.22597 15.2379 2.7781C14.8119 3.36758 14.3564 3.93688 13.934 4.52985C13.5459 5.07134 13.5767 5.34428 14.0588 5.81458Z"/>
</svg>
