<svg width="15" height="10" viewBox="0 0 15 10" xmlns="http://www.w3.org/2000/svg">
<path d="M14.3625 0.963636C13.9556 0.261818 13.5141 0.132727 12.615 0.0836364C11.7169 0.0245455 9.45844 0 7.50187 0C5.54156 0 3.28219 0.0245455 2.385 0.0827274C1.48781 0.132727 1.04531 0.260909 0.634687 0.963636C0.215625 1.66455 0 2.87182 0 4.99727C0 4.99909 0 5 0 5C0 5.00182 0 5.00273 0 5.00273V5.00455C0 7.12091 0.215625 8.33727 0.634687 9.03091C1.04531 9.73273 1.48687 9.86 2.38406 9.91909C3.28219 9.97 5.54156 10 7.50187 10C9.45844 10 11.7169 9.97 12.6159 9.92C13.515 9.86091 13.9566 9.73364 14.3634 9.03182C14.7863 8.33818 15 7.12182 15 5.00545C15 5.00545 15 5.00273 15 5.00091C15 5.00091 15 4.99909 15 4.99818C15 2.87182 14.7863 1.66455 14.3625 0.963636ZM5.625 7.72727V2.27273L10.3125 5L5.625 7.72727Z" />
</svg>
